<svg xmlns="http://www.w3.org/2000/svg"  viewBox="0 0 100 100" width="500px" height="500px" baseProfile="basic"><circle cx="77" cy="13" r="1" fill="#f1bc19"/><circle cx="50" cy="50" r="37" fill="#e6edb7"/><circle cx="83" cy="15" r="4" fill="#f1bc19"/><circle cx="87" cy="24" r="2" fill="#88ae45"/><circle cx="81" cy="76" r="2" fill="#fbcd59"/><circle cx="15" cy="63" r="4" fill="#fbcd59"/><circle cx="25" cy="87" r="2" fill="#88ae45"/><circle cx="18.5" cy="51.5" r="2.5" fill="#fff"/><circle cx="79.5" cy="33.5" r="1.5" fill="#fff"/><circle cx="21" cy="67" r="1" fill="#f1bc19"/><path fill="#605e60" d="M66.3,72.3H33.7c-3.314,0-6-2.686-6-6V33.7c0-3.314,2.686-6,6-6h32.6c3.314,0,6,2.686,6,6v32.6	C72.3,69.614,69.614,72.3,66.3,72.3z"/><path fill="#f45834" d="M66.3,27.697H33.7c-3.31,0-6,2.69-6,6v32.6c0,3.32,2.69,6,6,6h32.6c3.31,0,6-2.68,6-6v-32.6	C72.3,30.387,69.61,27.697,66.3,27.697z M69.5,66.296c0,1.77-1.44,3.2-3.2,3.2H33.7c-1.76,0-3.2-1.43-3.2-3.2v-32.6	c0-1.76,1.44-3.2,3.2-3.2h32.6c1.76,0,3.2,1.44,3.2,3.2V66.296z"/><path fill="#472b29" d="M66.3,73H33.7c-3.694,0-6.7-3.006-6.7-6.7V33.7c0-3.694,3.006-6.7,6.7-6.7h32.6	c3.694,0,6.7,3.006,6.7,6.7v32.6C73,69.994,69.994,73,66.3,73z M33.7,28.4c-2.923,0-5.3,2.377-5.3,5.3v32.6	c0,2.922,2.377,5.3,5.3,5.3h32.6c2.923,0,5.3-2.377,5.3-5.3V33.7c0-2.922-2.377-5.3-5.3-5.3H33.7z"/><path fill="#472b29" d="M30.5,39.957c-0.276,0-0.5-0.224-0.5-0.5v-5.5c0-2.206,1.794-4,4-4h25.5c0.276,0,0.5,0.224,0.5,0.5	s-0.224,0.5-0.5,0.5H34c-1.654,0-3,1.346-3,3v5.5C31,39.733,30.776,39.957,30.5,39.957z"/><path fill="#472b29" d="M66,69.957H44.5c-0.276,0-0.5-0.224-0.5-0.5s0.224-0.5,0.5-0.5H66c1.654,0,3-1.346,3-3v-11.5	c0-0.276,0.224-0.5,0.5-0.5s0.5,0.224,0.5,0.5v11.5C70,68.162,68.206,69.957,66,69.957z"/><path fill="#c9c7c1" d="M66,30.457h-1.2c0,0-12.865,5.887-24.083,11.943C29.5,48.457,26.5,53.457,26.5,59.457s6,9,11,9	s8.108-1.297,13.328-4.818l4.672-3.182l14-8.8v-17.7C69.5,32.024,67.933,30.457,66,30.457z"/><path fill="#f45834" d="M56.258,50c-0.209-2.174,0.682-7.599,0.682-7.599l-0.832-1.249c-1.842,2.152-5.438,8.152-5.438,8.152	l0.34,1.345c2.566,0.245,3.01,2.201,3.01,2.201c2.184-0.174,4.109,1.215,4.109,1.215l0.416-0.97	C58.546,53.095,56.467,52.174,56.258,50z"/><path fill="#fcc938" d="M69.543,44.12l-0.196-7.435c-1.663,0.88-2.266-0.652-2.266-0.652l-0.964,0.603	c0,0,0.931,3.554,1.123,4.044c0.192,0.489,0.738,0.245,0.738,0.245l-2.203,1.415l1.844,3.688l0.815-0.424l-0.163-0.848	C68.272,44.755,68.875,44.315,69.543,44.12z"/><path fill="#472b29" d="M30.5,46.957c-0.276,0-0.5-0.224-0.5-0.5v-4c0-0.276,0.224-0.5,0.5-0.5s0.5,0.224,0.5,0.5v4	C31,46.733,30.776,46.957,30.5,46.957z"/><path fill="#f45834" d="M56.106,60.446c-0.593-0.053-1.558-0.05-1.558-0.05l0.351,1.46l-1.513,0.463l-1.1-1.043	c-0.44,0.306-1.137,0.929-1.26,1.724c-0.122,0.795,0.562,2.519,1.162,2.996c0.677,0.539,2.128,0.656,3.53,0.069	c1.402-0.587,2.18-1.473,2.186-2.356C57.908,62.865,57.323,60.554,56.106,60.446z"/><path fill="#f9acb4" d="M57.188,61.266c0.117,0.532-0.637,1.79-2.318,2.549c-1.516,0.685-3.342,0.424-3.855-0.519	c0,0,0.146-1.066,1.258-1.776c0,0,0.933,1.185,2.111,0.611c1.178-0.574,0.371-1.601,0.371-1.601S56.318,60.119,57.188,61.266z"/><path fill="#472b29" d="M53.826,66.958c-0.775,0-1.474-0.192-1.95-0.571c-0.75-0.597-1.492-2.506-1.345-3.463	c0.163-1.051,1.081-1.791,1.469-2.059l0.57,0.821c-0.22,0.152-0.944,0.703-1.051,1.39c-0.092,0.597,0.513,2.157,0.979,2.528	c0.513,0.408,1.785,0.518,3.025-0.001c1.154-0.483,1.874-1.21,1.879-1.898c0.005-0.805-0.487-2.5-1.305-2.851	c-0.443-0.191-1.168-0.05-1.411,0.021l-0.28-0.959c0.123-0.037,1.237-0.346,2.087,0.021c1.47,0.632,1.914,2.989,1.909,3.776	c-0.008,1.112-0.939,2.164-2.492,2.814C55.222,66.815,54.495,66.958,53.826,66.958z"/><path fill="#f45834" d="M44.973,47.625c-0.319-0.351-1.125-2.168-1.141-2.902c-0.016-0.734,1.537-2.094,2.62-2.549	c1.041-0.438,3.302-0.395,4.016,0.169c0.182,0.144,0.979,2.52,0.978,2.821c0,0.473-0.913,1.81-2.609,2.462	S45.374,48.066,44.973,47.625z"/><path fill="#f9acb4" d="M50.467,42.774c0,0-0.652,1.027-2.7,1.848c-1.641,0.658-3.235,0.767-3.79,0.31	c0,0,0.103-1.498,2.572-2.66C49.02,41.111,50.467,42.774,50.467,42.774z"/><path fill="#ededeb" d="M54.927,61.264c-0.318-0.709-1.883-4.231-1.785-5.454c0.098-1.223,1.296-2.201,0.832-3.448	c-0.465-1.247-1.887-1.541-2.961-1.541l-1.294-3.399l-2.462,0.693c0,0,0.774,4.104,0.62,5.804c-0.049,0.538-1.125-0.065-1.272,0.652	c-0.147,0.717,0.016,0.978,0.456,1.027c0.44,0.049,1.143-1.399,5.715,6.359c0.269,0.456,1.03,0.413,1.443,0.236	C54.578,62.039,55.245,61.973,54.927,61.264z"/><path fill="#472b29" d="M67.619,46.277c-0.026,0-0.052-0.004-0.077-0.012c-0.063-0.021-0.116-0.066-0.146-0.126l-1.844-3.688	c-0.057-0.114-0.019-0.253,0.089-0.322l1.605-1.031c-0.104-0.079-0.185-0.189-0.238-0.327c-0.195-0.497-1.094-3.926-1.132-4.071	c-0.027-0.106,0.017-0.217,0.109-0.275l0.963-0.603c0.063-0.039,0.142-0.047,0.21-0.025c0.07,0.023,0.127,0.076,0.155,0.145	c0.002,0.005,0.217,0.525,0.709,0.705c0.34,0.123,0.746,0.063,1.208-0.181c0.121-0.064,0.273-0.019,0.338,0.104	s0.019,0.273-0.104,0.338c-0.595,0.315-1.141,0.385-1.619,0.207c-0.437-0.161-0.711-0.491-0.858-0.726l-0.581,0.363	c0.333,1.267,0.927,3.479,1.066,3.838c0.035,0.09,0.08,0.118,0.109,0.13c0.103,0.042,0.251-0.004,0.296-0.023	c0.123-0.053,0.261-0.002,0.32,0.112c0.062,0.115,0.024,0.257-0.085,0.327L66.1,42.428l1.63,3.261l0.425-0.221l-0.128-0.665	c-0.019-0.095,0.02-0.192,0.098-0.25c0.026-0.019,0.647-0.468,1.35-0.673c0.133-0.04,0.271,0.037,0.311,0.169	c0.038,0.133-0.037,0.271-0.17,0.31c-0.442,0.13-0.862,0.378-1.066,0.511l0.132,0.686c0.021,0.109-0.031,0.218-0.13,0.269	l-0.815,0.424C67.698,46.268,67.659,46.277,67.619,46.277z"/><polygon fill="#ededeb" points="47.639,50.364 43.554,52.679 45.596,57.766 48.413,56.201"/><path fill="#472b29" d="M46.635,48.536c-0.936,0-1.707-0.217-2.032-0.575c0,0,0,0,0,0c-0.406-0.447-1.252-2.384-1.271-3.227	c-0.03-1.406,2.738-2.546,2.855-2.594c1.325-0.537,3.626-0.953,4.591-0.19c0.395,0.313,1.169,2.918,1.168,3.215	c0,0.751-1.114,2.229-2.929,2.927C48.214,48.401,47.373,48.536,46.635,48.536z M45.342,47.288c0.206,0.206,1.707,0.49,3.315-0.13	c1.519-0.584,2.26-1.721,2.288-2.002c-0.03-0.259-0.629-2.062-0.837-2.456c-0.54-0.331-2.249-0.16-3.545,0.367	c-1.305,0.529-2.239,1.35-2.232,1.645C44.345,45.318,45.107,47.027,45.342,47.288z"/><path fill="#6ee7ea" d="M69.689,41.482c-1.066,0.387-3.336,2.01-3.336,2.01l-1.174-0.914l-0.47-0.787	c0.405-0.704,2.951-2.196,2.951-2.196l-0.64-1.878c-0.657,0.552-4.486,4.169-4.486,4.169c-1.134-1.715,1.212-3.045,1.212-3.045	l-0.443-0.786c-1.203,1.009-2.678,2.8-2.678,2.8l-1.027-1.724c-2.658,2.658-4.337,6.587-4.337,6.587s0.766,3.832,1.504,6.007	l2.151-1.377l0.528,1.634l1.784-0.965l0.359,1.272l0.781-0.58l-0.874-3.313c0,0-0.349-0.052,0.056,0.003	c0.405,0.055,1.357-0.642,1.357-0.642l0.738,3.082c0.135-5.332,6.043-7.904,6.043-7.904V41.482z"/><path fill="#472b29" d="M45.597,58.266c-0.057,0-0.113-0.01-0.167-0.029c-0.136-0.048-0.243-0.152-0.297-0.285l-2.042-5.087	c-0.094-0.232,0-0.498,0.218-0.621l4.084-2.315l0.492,0.87l-3.703,2.099l1.668,4.155l2.32-1.29l0.486,0.874l-2.816,1.565	C45.765,58.245,45.681,58.266,45.597,58.266z"/><path fill="#472b29" d="M50.78,49.373c-0.042,0-0.085-0.011-0.124-0.033c-0.12-0.068-0.161-0.221-0.093-0.341	c0.027-0.049,2.792-4.887,5.352-8.006c0.051-0.061,0.107-0.106,0.206-0.091c0.079,0.004,0.151,0.045,0.195,0.111l0.832,1.249	c0.076,0.115,0.046,0.27-0.069,0.347c-0.116,0.076-0.271,0.046-0.347-0.069l-0.644-0.966c-2.472,3.088-5.064,7.626-5.092,7.673	C50.951,49.328,50.867,49.373,50.78,49.373z"/><path fill="#472b29" d="M37.5,68.957c-5.575,0-11.5-3.33-11.5-9.5c0-6.965,4.06-11.871,14.48-17.497	c11.103-5.995,23.982-11.899,24.111-11.958c0.065-0.03,0.136-0.045,0.208-0.045H66c2.206,0,4,1.794,4,4v17.7	c0,0.172-0.088,0.332-0.234,0.423l-14,8.8c-0.23,0.146-0.541,0.077-0.688-0.157C54.93,60.489,55,60.18,55.234,60.033L69,51.38	V33.957c0-1.654-1.346-3-3-3h-1.091c-1.22,0.561-13.395,6.183-23.954,11.883C29.373,49.093,27,54.005,27,59.457	c0,5.521,5.41,8.5,10.5,8.5c4.678,0,7.604-1.062,13.049-4.732c0.229-0.153,0.539-0.095,0.694,0.135	c0.154,0.229,0.094,0.54-0.136,0.694C46.181,67.375,42.889,68.957,37.5,68.957z"/><path fill="#472b29" d="M53.575,62.818c-0.479,0-0.968-0.162-1.231-0.607c-2.467-4.186-4.245-6.35-4.971-6.161	c-0.092,0.026-0.219,0.06-0.369,0.045c-0.337-0.038-0.592-0.172-0.758-0.399c-0.266-0.365-0.21-0.847-0.133-1.226	c0.159-0.777,0.9-0.789,1.218-0.794c0.018,0,0.038,0,0.059-0.001c0.076-1.718-0.618-5.43-0.625-5.468l0.982-0.186	c0.032,0.17,0.784,4.193,0.626,5.942c-0.063,0.697-0.764,0.708-1.027,0.712c-0.091,0.001-0.245,0.004-0.291,0.025	c-0.032,0.316,0.006,0.414,0.008,0.418c0.993-0.301,2.257-0.01,6.143,6.583c0.082,0.137,0.524,0.154,0.816,0.03	c0.069-0.03,0.149-0.057,0.231-0.085c0.074-0.025,0.189-0.065,0.252-0.099c-0.008-0.015-0.018-0.043-0.034-0.082	c-0.724-1.612-1.924-4.497-1.827-5.698c0.047-0.588,0.289-1.09,0.523-1.576c0.335-0.691,0.529-1.142,0.337-1.658	c-0.394-1.058-1.73-1.215-2.492-1.215c-0.207,0-0.394-0.128-0.468-0.322l-1.294-3.399l0.936-0.355l1.175,3.086	c1.556,0.086,2.669,0.751,3.081,1.856c0.351,0.943-0.034,1.74-0.374,2.442c-0.203,0.421-0.396,0.819-0.428,1.221	c-0.055,0.694,0.613,2.69,1.743,5.209c0.149,0.334,0.167,0.636,0.053,0.898c-0.176,0.404-0.588,0.544-0.861,0.637	c-0.057,0.019-0.112,0.038-0.16,0.058C54.181,62.752,53.88,62.818,53.575,62.818z"/><path fill="#472b29" d="M53.161,56.5c-0.092,0-0.181-0.051-0.225-0.139c-0.867-1.756-1.98-4.7-1.728-5.427	c0.046-0.131,0.188-0.2,0.318-0.154c0.131,0.045,0.199,0.188,0.154,0.318c-0.128,0.367,0.546,2.697,1.704,5.042	c0.061,0.124,0.01,0.274-0.114,0.335C53.236,56.492,53.198,56.5,53.161,56.5z"/><path fill="#ededeb" d="M65.699,42.185l-0.598,0.506l-0.551-0.9l1.383-1.169l-0.66-1.345l-2.805,2.531l-0.301-0.501	l-1.37,1.125c0,0,0.587,1.394,0.758,1.81c0.171,0.416-0.147,1.418-0.367,1.052c-0.22-0.367-0.734-1.932-0.734-1.932l-0.538-0.342	l-1.198,0.856c-0.587-0.22-2.544,1.296-2.544,1.296l-0.831-0.238l-4.182,2.708l0.465,1.628l1.369-0.772l0.685,3.033l1.773-1.015	l-0.685-3.094l0.526-0.306l0.33,0.109l0.636,2.508l0.602,0.232l1.269-0.893l-0.385-1.206l0.694-0.381l0.428,0.617l0.585,0.138	l1.323-1.047c0,0,2.139-0.044,2.443-2.003c0,0,0.153,0.604,0.465,0.848l2.751-2.531L65.699,42.185z"/><path fill="#472b29" d="M56.944,50.247c-0.03,0-0.061-0.005-0.09-0.017l-0.685-0.264c-0.076-0.029-0.133-0.093-0.152-0.172	l-0.792-3.118c-0.024-0.096,0.01-0.198,0.089-0.259l0.13-0.102l-0.074-0.371c-0.013-0.062-0.001-0.126,0.032-0.18	c0.022-0.036,0.553-0.887,1.545-1.443c0.117-0.068,0.271-0.026,0.34,0.095c0.067,0.121,0.025,0.273-0.096,0.34	c-0.71,0.399-1.163,0.982-1.311,1.191l0.084,0.419c0.019,0.093-0.017,0.188-0.092,0.247l-0.123,0.096l0.721,2.835l0.432,0.167	l0.942-0.734l-0.286-1.025c-0.027-0.102,0.01-0.209,0.096-0.271l0.648-0.464c0.056-0.04,0.125-0.055,0.191-0.042	c0.067,0.012,0.126,0.052,0.163,0.109l0.355,0.543l0.342,0.11l1.119-0.851c0.108-0.083,0.266-0.062,0.351,0.048	c0.083,0.11,0.062,0.267-0.048,0.351l-1.223,0.929c-0.064,0.049-0.153,0.063-0.228,0.039l-0.551-0.177	c-0.055-0.018-0.102-0.053-0.133-0.101l-0.261-0.399l-0.294,0.211l0.284,1.018c0.026,0.098-0.008,0.202-0.088,0.265l-1.187,0.924	C57.054,50.228,56.999,50.247,56.944,50.247z"/><path fill="#472b29" d="M53.68,51.78c-0.034,0-0.068-0.007-0.101-0.021c-0.072-0.032-0.126-0.097-0.144-0.174l-0.611-2.705	l-1.076,0.607c-0.066,0.038-0.146,0.043-0.218,0.014c-0.071-0.029-0.125-0.089-0.146-0.163L50.92,47.71	c-0.03-0.106,0.012-0.219,0.104-0.279l4.183-2.708c0.062-0.04,0.134-0.05,0.205-0.03l0.71,0.204	c0.522-0.397,1.775-1.289,2.476-1.289c0.021,0,0.042,0,0.062,0.002l1.111-0.794c0.085-0.059,0.194-0.061,0.279-0.007l0.538,0.342	c0.049,0.031,0.086,0.078,0.104,0.133c0.116,0.353,0.408,1.209,0.602,1.658c0.056-0.193,0.089-0.461,0.03-0.604	c-0.171-0.415-0.758-1.808-0.758-1.808c-0.043-0.102-0.014-0.22,0.072-0.291l1.37-1.125c0.057-0.045,0.131-0.066,0.201-0.053	c0.071,0.013,0.134,0.056,0.171,0.118l0.145,0.241l2.58-2.327c0.058-0.053,0.137-0.076,0.214-0.06	c0.077,0.015,0.143,0.065,0.178,0.135l0.66,1.345c0.051,0.104,0.023,0.23-0.066,0.304l-2.384,1.957	c-0.105,0.088-0.263,0.071-0.352-0.035c-0.088-0.107-0.072-0.264,0.035-0.352l2.23-1.831l-0.427-0.87l-2.559,2.309	c-0.057,0.051-0.131,0.074-0.205,0.062c-0.073-0.011-0.139-0.054-0.177-0.118l-0.152-0.253l-1.002,0.823	c0.162,0.386,0.553,1.313,0.688,1.639c0.164,0.4-0.001,1.269-0.342,1.44c-0.145,0.072-0.344,0.048-0.472-0.164	c-0.204-0.342-0.609-1.542-0.728-1.897l-0.321-0.204l-1.061,0.758c-0.067,0.048-0.155,0.06-0.233,0.03	c-0.238-0.078-1.318,0.498-2.303,1.26c-0.063,0.05-0.144,0.064-0.223,0.042l-0.722-0.208l-3.932,2.546l0.327,1.146l1.093-0.617	c0.068-0.039,0.153-0.043,0.225-0.011c0.072,0.032,0.125,0.096,0.143,0.173l0.61,2.703l1.319-0.755l-0.645-2.914	c-0.023-0.106,0.024-0.216,0.118-0.271l0.526-0.306c0.062-0.036,0.137-0.044,0.204-0.021l0.33,0.108	c0.131,0.043,0.202,0.184,0.159,0.315c-0.042,0.13-0.179,0.206-0.315,0.159l-0.224-0.073l-0.271,0.158l0.646,2.915	c0.023,0.107-0.025,0.217-0.12,0.271l-1.772,1.015C53.766,51.769,53.723,51.78,53.68,51.78z"/><path fill="#472b29" d="M65.101,42.829c-0.086,0-0.17-0.045-0.217-0.125l-0.453-0.787c-0.068-0.12-0.027-0.272,0.092-0.341	c0.119-0.067,0.271-0.029,0.342,0.092l0.453,0.787c0.068,0.12,0.027,0.272-0.092,0.341C65.186,42.818,65.144,42.829,65.101,42.829z"/><path fill="#472b29" d="M61.03,47.473c-0.496,0-1.059-0.276-1.708-1.164c-0.039-0.053-0.055-0.121-0.045-0.186	c0.003-0.017,0.256-1.724-0.716-2.026c-0.132-0.041-0.205-0.181-0.164-0.313s0.181-0.207,0.312-0.165	c1.221,0.38,1.124,2.031,1.075,2.474c0.938,1.241,1.467,0.936,2.193,0.513c0.652-0.378,0.859-1.238,0.861-1.246	c0.021-0.089,0.089-0.16,0.177-0.185c0.092-0.026,0.184,0.002,0.247,0.067l0.429,0.447l2.435-2.239l-0.45-0.92l-1.467,1.242	c-0.104,0.088-0.264,0.076-0.352-0.029c-0.09-0.105-0.076-0.263,0.029-0.353l1.712-1.449c0.059-0.05,0.138-0.067,0.213-0.054	c0.075,0.016,0.139,0.065,0.173,0.135l0.673,1.376c0.049,0.1,0.026,0.219-0.056,0.294l-2.752,2.531	c-0.1,0.092-0.254,0.087-0.35-0.011l-0.314-0.329c-0.152,0.355-0.443,0.856-0.956,1.154C61.876,47.244,61.481,47.473,61.03,47.473z"/><path fill="#472b29" d="M63.352,45.776c-0.099,0-0.192-0.059-0.232-0.157l-1.333-3.314c-0.039-0.097-0.013-0.208,0.065-0.279	l3.253-2.935c0.101-0.093,0.262-0.084,0.353,0.018c0.093,0.103,0.084,0.261-0.019,0.353l-3.123,2.818l1.269,3.152	c0.051,0.128-0.011,0.273-0.139,0.325C63.414,45.77,63.383,45.776,63.352,45.776z"/><path fill="#472b29" d="M57.254,46.637c-0.08,0-0.158-0.038-0.207-0.109c-0.077-0.114-0.048-0.27,0.066-0.347l0.639-0.436	c0.113-0.078,0.27-0.048,0.348,0.066c0.077,0.114,0.048,0.27-0.066,0.347l-0.639,0.436C57.352,46.623,57.303,46.637,57.254,46.637z"/><path fill="#472b29" d="M45.112,45.462c-0.564,0-1.019-0.11-1.293-0.336c-0.106-0.088-0.121-0.246-0.034-0.352	c0.088-0.106,0.244-0.123,0.353-0.034c0.429,0.354,1.871,0.319,3.537-0.349c1.933-0.775,2.576-1.742,2.583-1.751	c0.075-0.115,0.229-0.148,0.345-0.075c0.116,0.074,0.15,0.228,0.076,0.344c-0.028,0.045-0.72,1.105-2.818,1.946	C46.861,45.255,45.885,45.462,45.112,45.462z"/><path fill="#472b29" d="M53.082,64.454c-1.023,0-1.922-0.366-2.287-1.039c-0.065-0.121-0.021-0.273,0.101-0.339	c0.12-0.064,0.273-0.021,0.339,0.101c0.449,0.829,2.167,1.028,3.532,0.411c1.574-0.711,2.264-1.871,2.177-2.268	c-0.029-0.135,0.056-0.268,0.19-0.298c0.134-0.028,0.269,0.056,0.298,0.19c0.163,0.74-0.808,2.084-2.46,2.831	C54.356,64.321,53.696,64.454,53.082,64.454z"/><path fill="#472b29" d="M55.669,45.208c-0.033,0-0.066-0.006-0.099-0.021c-0.127-0.055-0.186-0.202-0.131-0.329	c0.066-0.154,1.66-3.813,4.019-6.072c0.057-0.054,0.135-0.078,0.212-0.066c0.078,0.013,0.145,0.061,0.182,0.129l1.598,2.996	c0.064,0.122,0.019,0.273-0.104,0.338c-0.119,0.064-0.272,0.02-0.338-0.103l-1.439-2.7c-2.158,2.207-3.654,5.641-3.67,5.676	C55.857,45.151,55.766,45.208,55.669,45.208z"/><path fill="#472b29" d="M62.29,41.764c-0.094,0-0.184-0.053-0.227-0.144c-0.627-1.338,0.81-2.49,1.383-2.882l-0.199-0.309	c-1.477,1.266-2.363,2.453-2.372,2.465c-0.084,0.111-0.24,0.134-0.35,0.052c-0.111-0.082-0.135-0.239-0.053-0.35	c0.041-0.055,1.016-1.361,2.671-2.734c0.055-0.045,0.129-0.065,0.197-0.055c0.07,0.011,0.133,0.051,0.172,0.111l0.489,0.758	c0.037,0.058,0.049,0.127,0.033,0.194c-0.016,0.066-0.058,0.123-0.117,0.158c-0.02,0.012-1.968,1.172-1.401,2.379	c0.059,0.125,0.005,0.274-0.12,0.333C62.362,41.756,62.326,41.764,62.29,41.764z"/><path fill="#472b29" d="M58.131,54.315c-0.061,0-0.12-0.022-0.166-0.063c-1.416-1.264-3.739-1.095-3.761-1.095	c-0.112,0.017-0.257-0.091-0.269-0.229c-0.011-0.138,0.092-0.258,0.229-0.269c0.097-0.009,2.306-0.171,3.881,1.014l0.254-0.516	c-0.655-0.333-2.385-1.408-2.289-3.436c0.007-0.138,0.136-0.251,0.262-0.238c0.138,0.006,0.244,0.124,0.238,0.261	c-0.101,2.125,2.122,3.024,2.217,3.061c0.065,0.026,0.117,0.077,0.143,0.143c0.024,0.065,0.021,0.138-0.009,0.201l-0.505,1.027	c-0.035,0.07-0.1,0.12-0.177,0.135C58.163,54.314,58.146,54.315,58.131,54.315z"/><path fill="#472b29" d="M56.94,51.87c-0.082,0-0.162-0.041-0.21-0.115c-0.075-0.116-0.041-0.271,0.074-0.345l3.391-2.184	l-0.729-0.942c-0.085-0.109-0.065-0.266,0.044-0.351c0.108-0.084,0.266-0.066,0.351,0.045l0.896,1.158	c0.043,0.055,0.061,0.126,0.049,0.195c-0.012,0.069-0.052,0.13-0.11,0.167l-3.619,2.332C57.034,51.857,56.987,51.87,56.94,51.87z"/><path fill="#472b29" d="M61.587,52.538c-0.03,0-0.061-0.005-0.09-0.017c-0.074-0.029-0.13-0.091-0.151-0.167	c-0.1-0.364-0.2-0.717-0.269-0.958l-1.481,0.878c-0.067,0.04-0.149,0.044-0.219,0.018c-0.072-0.028-0.127-0.088-0.148-0.162	l-0.474-1.598c-0.04-0.133,0.036-0.272,0.168-0.311c0.137-0.04,0.271,0.037,0.311,0.168l0.383,1.291l1.484-0.88	c0.068-0.041,0.148-0.046,0.22-0.018c0.072,0.028,0.127,0.089,0.148,0.163c0,0,0.124,0.429,0.27,0.95l0.363-0.23	c-0.134-0.555-0.56-2.305-0.867-3.265c-0.023-0.074-0.011-0.155,0.033-0.219c0.045-0.064,0.116-0.104,0.194-0.107	c0.007,0,0.725-0.039,1.284-0.512c0.067-0.057,0.156-0.075,0.243-0.045c0.083,0.029,0.146,0.1,0.163,0.186l0.344,1.678	c0.414-1.71,1.75-4.424,5.942-6.602V41.89c-1.296,0.69-2.841,1.809-2.858,1.821c-0.111,0.081-0.269,0.056-0.349-0.055	c-0.081-0.112-0.057-0.268,0.056-0.349c0.076-0.056,1.902-1.378,3.293-2.049c0.076-0.038,0.169-0.033,0.241,0.013	c0.073,0.046,0.117,0.126,0.117,0.212v1.452c0,0.094-0.053,0.18-0.137,0.223c-6.335,3.226-5.981,7.79-5.977,7.836	c0.013,0.132-0.081,0.251-0.212,0.271c-0.145,0.022-0.256-0.067-0.282-0.197l-0.592-2.885c-0.348,0.208-0.698,0.307-0.94,0.354	c0.362,1.206,0.81,3.104,0.83,3.191c0.024,0.104-0.02,0.211-0.109,0.269l-0.799,0.505C61.68,52.525,61.634,52.538,61.587,52.538z"/><path fill="#472b29" d="M65.932,40.872c-0.084,0-0.166-0.042-0.214-0.12c-0.071-0.118-0.034-0.272,0.084-0.344	c0.001-0.001,0.593-0.362,1.494-0.947l-0.403-1.31c-0.47,0.399-1.382,1.185-1.714,1.544c-0.092,0.102-0.251,0.108-0.353,0.015	s-0.108-0.252-0.015-0.354c0.474-0.515,1.983-1.778,2.048-1.832c0.063-0.054,0.149-0.071,0.231-0.048	c0.08,0.024,0.143,0.086,0.168,0.166l0.571,1.851c0.032,0.106-0.009,0.222-0.103,0.283c-0.999,0.651-1.666,1.058-1.666,1.058	C66.021,40.86,65.977,40.872,65.932,40.872z"/></svg>